<svg fill="none" height="135" viewBox="0 0 202 135" width="202" xmlns="http://www.w3.org/2000/svg"><path d="m176.231 120.542-64.128.013-14.0388.007h-4.6393l-14.012.007-52.5604.249c-.0337-.108-.0674-.222-.101-.33-5.6897-18.961 11.5813-18.725 16.3485-24.6177 1.6968-2.0992 1.8113-4.9747-1.2524-9.7672-.0135-.0203-.0269-.0473-.0471-.0675-1.8315-2.8688-3.1647-5.6903-4.04-8.4443-1.845-5.7645-1.717-11.2455-.0539-16.3147 1.2591-3.8408 3.4003-7.4385 6.2283-10.746 1.1043-1.2893 2.3096-2.5313 3.6091-3.726 26.0984-23.9895 89.742-28.539 98.549 13.3852 4.996 23.7735 12.894 10.017 29.135 26.9055 5.36 5.5755 7.171 11.2523 7.232 16.3077.114 9.72-6.229 17.139-6.229 17.139z" fill="#cce9ff"/><path d="m72.7537 88.1416s-7.6087-1.2556-12.7799 2.997c-5.1644 4.2525-2.1142 11.5224-6.3832 12.4674-6.1475 1.357-20.2942 3.301-18.8196 16.632.1481 1.35 43.1741 0 43.1741 0l-1.8449-28.7214z" fill="#2795f6"/><path d="m134.855 97.794s9.09-1.6672 15.399 3.517c6.31 5.177 3.434 9.436 6.815 10.543 3.38 1.107 8.16 3.281 7.09 8.762h-30.543z" fill="#2795f6"/><path d="m172.367 120.191h-4.108c-.222-.189.155-.615.539-.642.168-.013.384.021.626.075.054-.75.377-4.138 1.596-3.996 1.367.155 0 1.491-.384 2.281-.289.587-.586 1.431-.727 1.823.108.027.229.047.343.067.182-.56.856-2.437 1.711-2.329 1.01.129.599.878-.115 1.33-.525.331-1.165.797-1.474 1.019.255.041.532.075.801.068.714-.02 1.057.189 1.192.304z" fill="#2795f6"/><path d="m145.144 16.605h-72.3903v99.947h72.3903z" fill="#ffbe55"/><path d="m146.093 61.9988h-74.2955v3.2062h74.2955z" fill="#e5a13e"/><path d="m134.97 30.5505h-19.776v26.352h19.776z" fill="#fff" opacity=".5"/><path d="m134.478 31.0298h-18.806v25.38h18.806z" fill="#cce9ff"/><path d="m120.15 30.7733v7.2292.189c-.014.567-.081.999-.155.999h-.02c-.074 0-.135-.3712-.155-.8775 0-.0405 0-.081-.007-.1282v-.0068c0-.054 0-.1147 0-.1687v-7.2698c.108.0135.222.0203.337.0338z" fill="#afcdfb"/><path d="m119.887 38.2725c-1.246 0-2.262 1.0732-2.262 2.3962h4.524c0-1.323-1.016-2.3962-2.262-2.3962z" fill="#afcdfb"/><path d="m120.069 38.2996c-.068-.0135-.128-.0203-.195-.0203-.815 0-1.475 1.0665-1.475 2.3895h.397c-.007-1.2083.552-2.2072 1.273-2.3692z" fill="#cde0fb"/><path d="m119.503 48.627s-1.111-1.3027-.067-2.1262c0 0 .761-.4658 1.387-.4253 0 0-.882 1.485-.599 1.6268.283.1485.862-1.7213.862-1.7213s1.737-.1687 2.296.1013c0 0-1.482 1.215-1.172 1.2892.31.0743 1.919-1.1205 1.919-1.1205s1.616.2768 1.529 1.2623c-.088.9855-.647 1.296-.889 1.269-.243-.027-1.677-.5738-1.711-.3713-.033.2025.829.8573 1.435.891 0 0-1.138 1.2623-1.899.8978-.754-.3645-.822-.9383-1.293-1.1543s-.875-.216-.68.0068c.195.2227 1.05.432 1.32.9112.269.4793.511.8033-.27.6818s-2.06-.6953-2.114-1.35c-.054-.6683-.054-.6683-.054-.6683z" fill="#10538c"/><path d="m124.863 47.5403s-4.39-.1688-5.36 1.0867c0 0-.215.6413-.875 1.2285l-.101.2835s.761-.8032 1.03-.8505c.007-.0067-.424-1.566 5.306-1.7482z" fill="#10538c"/><path d="m118.635 49.8556s-.943.702-1.01 1.944l.168.0135s.303-1.2892.842-1.7955c.552-.4995 0-.162 0-.162z" fill="#10538c"/><path d="m116.648 48.7823s0 0-.242.5197c-.014.027-.02.0473-.034.0743-.101.2227-.37.378-.693.4725v-4.266c.235.1012.397.1822.397.1822s-.101 1.944.215 1.9035c.317-.0405 0-1.728 0-1.728.593.1755 1.152.8708 1.152.8708.687 1.1407-.795 1.971-.795 1.971z" fill="#10538c"/><path d="m117.046 50.2336v.297s-.007-.0135-.014-.0337c-.013-.0338-.027-.0608-.04-.0878 0-.0067-.007-.0135-.007-.0202 0-.0068-.007-.0135-.007-.0135-.027-.054-.06-.1283-.094-.2025-.148-.3038-.364-.702-.505-.783 0-.0068.02-.0338.034-.0743.06-.1755.101-.6547-.728-1.377v-.2565c.478.351.849.729.97 1.1205-.007-.0202-.027.6548.391 1.431z" fill="#10538c"/><path d="m117.046 50.2336s.639.9787.276 2.1667l-.169-.0472s.162-1.3095-.175-1.971c-.336-.6548.068-.1485.068-.1485z" fill="#10538c"/><path d="m118.426 46.6561s-1.959-1.1003-1.044-2.592c0 0 .734-.918 1.515-1.1543 0 0-.417 2.2275 0 2.2748.418.054.29-2.511.29-2.511s2.06-.9923 2.875-.918c0 0-1.279 2.1735-.862 2.1195.418-.054 1.852-2.2478 1.852-2.2478s2.114-.3915 2.451.864c.336 1.2555-.209 1.8833-.526 1.9643-.316.081-2.322.054-2.269.3172.054.2633 1.408.6818 2.168.4455 0 0-.834 2.0655-1.932 1.9643-1.097-.108-1.434-.783-2.114-.837s-1.172.1282-.835.3172c.336.1823 1.488.0608 2.033.5265.546.4658.99.756-.027.9653-1.016.2092-2.848.081-3.211-.7088-.364-.7897-.364-.7897-.364-.7897z" fill="#10538c"/><path d="m124.533 42.8896s-5.481 1.782-6.107 3.7665c0 0 .027.891-.525 1.9103v.3915s.572-1.3365.889-1.5188c0 .0068-1.226-1.7212 5.743-4.5495z" fill="#10538c"/><path d="m117.901 48.5731s-.849 1.2893-.364 2.8553l.216-.0608s-.209-1.728.229-2.592c.451-.8707-.081-.2025-.081-.2025z" fill="#10538c"/><path d="m130.256 52.3868s2.896-11.8395 3.111-12.8318c.094-.4455.377-.6007.667-.648-.512-.054-.882-.054-.882-.054-1.004 0-1.892.7223-2.216 1.7888-.7 2.3355-3.42 6.237-4.733 10.6177.067 0 4.053 1.1273 4.053 1.1273z" fill="#1d8cdd"/><path d="m115.672 56.4166v-2.2207c.525-1.0193 1.057-1.9373 1.515-2.6596.067-.108.141-.216.209-.3172.02-.0338.04-.0675.067-.0945.087-.135.175-.2565.249-.3645.121-.1688.236-.3173.33-.4388.135-.1687.316-.3037.525-.405.02-.0067.034-.0202.054-.027.081-.0337.162-.0675.249-.1012.007 0 .02-.0068.027-.0068.243-.081.505-.1282.795-.1552.626-.0608 1.34-.0135 2.047.0877.087.0135.181.027.269.0405.39.0608.774.1418 1.138.2228h.007c.134.0338.262.0607.39.0945.007 0 .02.0068.027.0068.047.0135.088.0202.128.0337.195.0473.377.1012.552.1485.707.2025 1.178.3645 1.178.3645v.0945l.007.3577.007.1755.013.5131v.0202.0742l.014.4456v.0337l.101 4.0702h-9.898z" fill="#1d8cdd"/><path d="m129.341 52.1977c-.061-.027-.149-.0743-.27-.1283-.02-.0135-.047-.0202-.067-.0337-.061-.027-.135-.0608-.209-.1013-.094-.0405-.195-.0877-.303-.1417-.148-.0675-.316-.1418-.491-.2228-.054-.0202-.101-.0472-.162-.0675-.054-.0202-.101-.0472-.155-.0675-.209-.0877-.424-.1822-.66-.27-.215-.0877-.437-.1755-.673-.2632l-.034-.0135c-.639-.2363-1.333-.4725-2.026-.6548-.216-.0607-.431-.1147-.647-.162-.027-.0067-.06-.0135-.087-.0202 0 0 0 0-.007 0-.135-.027-.269-.054-.404-.081 0 0 0 0-.007 0-.363-.0675-.714-.108-1.043-.1283-.081-.0067-.162-.0067-.236-.0067-.613-.0135-1.165.0675-1.589.2835-.29.1485-.532.3645-.694.648-.168.297-.397.7695-.653 1.3702-.478 1.1138-1.057 2.6528-1.549 4.2728h11.683l.027-.3308.06-.6547.29-3.1793v-.0067c-.007 0-.034-.0135-.094-.0405z" fill="#137cbc"/><path d="m134.485 38.8936v17.5162h-.68c-.485-.0675-.963-.1417-1.428-.2227-.794-.135-1.555-.2903-2.208-.459-.195-.0473-.377-.1013-.552-.1553-.108-.0337-.209-.0607-.303-.0945-.054-.0202-.108-.0337-.162-.054-.734-.2565-1.212-.54-1.273-.8437-.053-.2768.081-.9315.33-1.8158.048-.162.095-.3307.149-.5062.026-.081.047-.162.074-.2498.006-.0337.02-.0607.033-.0945l.014-.0405c.006-.027.02-.0607.027-.0877 0-.0068.006-.0135.006-.0203.061-.189.122-.378.189-.5805.094-.2835.188-.5737.296-.8775.135-.3915.276-.8032.424-1.215.041-.1215.088-.243.128-.3645.155-.432.317-.8707.478-1.3095.418-1.1272.849-2.2612 1.253-3.3007.121-.3105.235-.6143.357-.9045.08-.2025.155-.3983.229-.594.222-.5603.377-1.0935.518-1.5795.216-.7223.411-1.3298.768-1.7078.208-.2227.464-.3712.821-.4185.02 0 .041-.0067.061-.0067.067-.0068.141-.0135.215-.0135z" fill="#2b94f4"/><path d="m132.377 56.1938-1.178-3.888-.02-.0608s-.135-.0135-.371-.0337c-.134-.0135-.303-.027-.498-.0405-.31-.027-.7-.0608-1.138-.0945-.013 0-.027 0-.04 0-.02 0-.041 0-.061-.0068-.081-.0067-.168-.0135-.256-.0202-.04 0-.08-.0068-.121-.0068-.094-.0067-.182-.0135-.276-.0202-.666-.0473-1.407-.0878-2.188-.1283-.189-.0067-.384-.0202-.579-.027-.068 0-.135-.0067-.202-.0067-.465-.0203-.936-.0338-1.408-.0405-.639-.0068-1.265-.0068-1.871 0-.048 0-.095 0-.142.0067-.303.0068-.592.0203-.875.0338-.539.027-1.037.0742-1.481.135-.27.0405-.526.0877-.748.135-.512.1215-.895.2835-1.091.4927-.424.459-.734 1.9238-.956 3.78h15.568z" fill="#2b94f4"/><path d="m128.028 44.6514s-.667.2362-1.192 1.3095c-.525 1.0665-.741 3.9487-1.003 3.9757-.263.027-2.236-.3577-2.236-.3577l.047.4927s2.054 1.3703 2.485 1.1273c.431-.2498 1.616-3.5708 1.69-4.077.074-.5063.209-2.4705.209-2.4705z" fill="#ffb27d"/><path d="m132.62 44.2799s-2.673-.567-4.592.3713c0 0-1.233 2.6527-1.192 3.105.04.4522.464 2.3287.081 3.0307-.391.7088 3.555 1.9643 4.269 1.5255.707-.432 1.548-7.5465 1.434-8.0325z" fill="#fff"/><path d="m123.025 55.0125c-.182.4185-.418.8978-.687 1.404h-3.636c.417-2.1802.788-3.699.976-4.4145.081-.3037.121-.4657.121-.4657.175-.3105.391-.486.62-.5535.491-.1418 1.064.189 1.576.6682.06.054.121.1148.175.1755.195.2025.377.4185.532.6345.363.4928.619.9788.653 1.2218.047.297-.088.7627-.33 1.3297z" fill="#0c476f"/><path d="m120.399 50.9962s.814-.4725 2.68-.0675c1.858.405 3.38 1.3702 3.38 1.3702l-4.741.1958z" fill="#0c476f"/><path d="m131.879 44.2733s1.185-.216 1.354.7493c.161.9652.02 6.8107-.889 7.1077s-4.633-1.35-4.633-1.35l.115-.621s3.562.486 3.696.432c.115-.054.357-6.318.357-6.318z" fill="#ffb27d"/><path d="m122.708 48.6811-.168-1.5593 2.202 2.9025s-.923.459-.977.3713c-.053-.0878-1.057-1.7145-1.057-1.7145z" fill="#0c476f"/><path d="m126.001 48.6809 2.027 3.105h-3.407l-1.913-3.105z" fill="#ffbe55"/><path d="m122.708 48.681-.161-1.5457 1.151 1.4377z" fill="#fff"/><path d="m127.927 51.6307.154-.1147-2.02-3.0038-.06.1688z" fill="#fff"/><path d="m126.061 48.5122-3.211.0878-.142.081h3.293z" fill="#fff"/><path d="m127.139 56.4164h-3.636c-.175-.4995-.337-.972-.478-1.404-.364-1.1002-.633-1.9642-.802-2.5312-.087-.3038-.154-.5265-.188-.648-.027-.081-.034-.1283-.034-.1283 0-.0202 0-.0337 0-.054.007-.405.142-.675.371-.837.013-.0067.026-.0202.033-.027.371-.243.943-.2362 1.542-.1012.532.1215 1.077.3375 1.502.567.343.1822.606.3712.713.5062.007.0068.014.0203.027.0338.021.0337.041.0675.061.1012.054.1013.108.2295.162.378 0 .0068.006.0135.006.0203 0 .0067 0 .0067.007.0135.202.6142.391 1.5862.545 2.7.054.4522.115.9247.169 1.4107z" fill="#10538c"/><path d="m122.399 50.7871s1.407-1.269 7.15 1.458l-4.713.0742z" fill="#10538c"/><path d="m127.819 50.1593s-.525-.351-.714-.378c-.229-.0337-.471-.3172-.444-.1552s.276.3712.343.4387c.068.0675-.39.054-.579-.0337-.087-.0405-.552-.162-.545.0067 0 .1013.182.5805.639.6818.209.0472 1.226.0742 1.226.0742z" fill="#ffb27d"/><path d="m130.202 41.5598s.997.5467.229 1.6402c0 0 .869.1283 1.091-.1215 0 0-.033.108-.074.162 0 0 .842-.0877 1.158-.3982.31-.3105-.511-4.59-2.774-3.7868 0 0-2 .1283-1.495 2.3963s-.242 2.3692-.242 2.3692.222.0743.323.0608c0 0 .142-.0743.155-.162 0 0-.013.1282-.04.1755 0 0 .814-.0338 1.178-.3983.343-.351.673-1.4782.491-1.9372z" fill="#0c476f"/><path d="m130.553 42.7005s.545-.7695.7-1.4377c.114-.4793.714-2.4503-1.098-2.2883 0 0-1.279.189-1.791.4928-.404.243-.996.783-.451 2.3827l.135.54z" fill="#0c476f"/><path d="m129.388 45.0023c.134.1013.727.2228 1.198-.0135.445-.2227.647-.702.579-.891-.067-.1957-.276-.2632-.498-1.4445l-.087.0338-1.455.594s.128.4725.216.918c.074.3847-.034.7492.047.8032z" fill="#ffb27d"/><path d="m129.125 43.2809s.128.4725.216.918c.841-.189 1.138-1.053 1.239-1.5187z" fill="#ed975d"/><path d="m128.923 43.7669s2.013-.3577 1.771-1.6132-.148-2.1398-1.441-1.9643-1.448.702-1.475 1.1408c-.013.4387.62 2.4975 1.145 2.4367z" fill="#ffb27d"/><path d="m128.385 39.8925s.989 1.674 1.966 1.782c.976.1148 1.198-.3172 1.198-.3172s-.801-.4725-1.091-1.458c0 .0067-1.717-.8505-2.073-.0068z" fill="#0c476f"/><path d="m128.553 40.0072s-.411.432-.472.8032c-.06.3713-.013 1.1138-.228 1.1205 0 0-.62-1.053-.182-1.755.458-.756.882-.1687.882-.1687z" fill="#0c476f"/><path d="m128.479 40.0748s.673 1.6605 1.939 2.0452c0 0-1.333-.891-1.596-2.0115-.256-1.1272-.343-.0337-.343-.0337z" fill="#0c476f"/><path d="m132.6 42.8423c-.31.3105-1.159.3982-1.159.3982.041-.054.074-.162.074-.162-.444.3375-1.494.054-1.494.054.855-.162.612-1.3972.323-1.458-.142-.9315-.445-2.0925-.586-2.6122.04-.0068.061-.0068.061-.0068 2.269-.8032 3.09 3.4763 2.781 3.7868z" fill="#0c476f"/><path d="m131.488 44.1719s1.307.0202 1.65.3037c.344.2835.505 4.3268.505 4.3268s-.619-.1688-1.178-.0405c-.559.1282-1.286 0-1.286 0z" fill="#fff"/><path d="m129.28 44.2463s-1.65.3308-2.027.7695c-.377.4388-1.131 2.646-1.131 2.646s.29.0473.444.2498c.149.2025.64.108.64.108z" fill="#fff"/><path d="m126.277 56.4164c.222-.4928.458-.9653.68-1.4108.451-.8842.882-1.6605 1.246-2.2342.121-.1958.235-.3645.336-.5063.048-.0675.088-.1282.128-.1822.014-.0135.021-.027.034-.0473.007-.0067.013-.0135.02-.027.014-.0202.027-.0337.047-.0472.007-.0135.021-.0203.027-.0338.007-.0067.014-.0135.02-.0202.189-.1755.425-.3105.694-.405.296-.1013.64-.162 1.003-.189.35-.0203.727-.0135 1.105.0202.383.0338.767.0878 1.137.1553.128.0202.256.0472.378.0742h.006c.505.1013.97.2228 1.34.324v4.5225h-8.201z" fill="#137cbc"/><path d="m128.964 56.4163c.04-.108.08-.2227.114-.3307.074-.2025.148-.405.222-.6008.209-.5467.411-1.0597.6-1.4985.276-.6547.525-1.1745.7-1.4917.02-.027.033-.0608.054-.0878.047-.0742.101-.1417.155-.2025.067-.0742.148-.1485.235-.2092.135-.1013.283-.1823.451-.243.357-.1418.781-.2025 1.246-.2025.128 0 .263.0067.397.0135h.007c.222.0135.451.0405.687.0742.04.0068.081.0135.121.0203.007 0 .02 0 .027.0067.168.027.337.0608.505.0945v4.6575z" fill="#137cbc"/><path d="m135.885 56.4099h-.424v-19.6358-1.0867-5.6295h-20.738v5.6295 1.0867 19.6358h-.425c-1.057 0-1.919.8572-1.919 1.9237v.0675h25.419v-.0675c0-1.0665-.855-1.9237-1.913-1.9237zm-20.2-25.3868h18.807v4.6575h-18.807zm0 5.751h18.807v19.6358h-18.807z" fill="#e5a13e"/><path d="m134.216 31.4414h-18.187v.918h18.187z" fill="#fff"/><path d="m134.216 32.8792h-18.187v.918h18.187z" fill="#fff"/><path d="m134.216 34.3169h-18.187v.918h18.187z" fill="#fff"/><path d="m134.216 35.667h-18.187v.918h18.187z" fill="#fff"/><path d="m134.216 37.1855h-18.187v.918h18.187z" fill="#fff"/><path d="m117.046 31.0095h-.176v7.8368h.176z" fill="#fff"/><path d="m133.475 31.0095h-.175v7.8368h.175z" fill="#fff"/><path d="m135.401 76.3628h-19.776v26.3522h19.776z" fill="#cce9ff"/><path d="m125.9 76.842s.047 7.7895-7.831 14.3708c0 0 1.643 8.5792 1.407 11.0162h-3.784v-25.3802h10.208z" fill="#fff"/><path d="m126.587 90.106s-.822.0877-1.3.9045c-.478.81-1.414 4.3335-2.094 5.049s-3.077 2.1532-3.077 2.1532l.606.3983s3.656-1.1138 4.188-1.7618 1.293-4.1107 1.293-4.1107z" fill="#ffb27d"/><path d="m127.395 85.1515s.047-1.161 1.71-1.2285c1.663-.0743 2.862 1.3365 2.916 2.106.053.7695-.283 1.9642.808 2.7607 1.09.7965.552 4.4888-2.027 4.4888s-4.114-.1485-4.128-1.485c-.006-1.3365-.054-2.5448.97-2.916 1.03-.378-.249-3.726-.249-3.726z" fill="#0c476f"/><path d="m130.209 99.9948s-.007.0132-.007.0342c0 .006-.006.02-.006.027-.007.02-.014.054-.027.087 0 .007-.007.021-.007.027-.007.027-.02.061-.027.102-.007.02-.013.047-.02.067-.061.196-.135.459-.236.783-.02.081-.047.169-.074.263-.013.048-.027.088-.04.135-.007.014-.007.034-.014.048-.006.033-.02.06-.027.094-.013.034-.02.074-.033.115-.027.088-.054.175-.074.27-.061.216-.122.439-.189.675h-3.898c.006-.243.02-.479.033-.695 0-.054.007-.102.007-.149.02-.243.034-.472.054-.675.007-.054.007-.108.013-.155.014-.101.02-.203.034-.29 0-.021.007-.034.007-.048 0-.02.006-.033.006-.047.014-.094.021-.189.034-.27.007-.027.007-.054.014-.081.006-.027.006-.047.013-.074.007-.02.007-.047.013-.068.007-.02.007-.04.014-.06 0-.014 0-.021.007-.027.006-.027.006-.054.013-.081 0-.014.007-.0342.007-.0477s.007-.027.007-.0405c.006-.054.027-.1013.047-.1418.006-.0135.013-.0202.02-.0337s.013-.0203.02-.027c.014-.0203.027-.0405.047-.054.007-.0068.014-.0135.027-.027.007-.0068.02-.0203.027-.027.007-.0068.014-.0135.02-.0203.014-.0135.027-.0202.041-.027.006-.0067.02-.0135.027-.0202.02-.0135.04-.0203.06-.0338.014-.0067.02-.0135.034-.0135.013-.0067.027-.0135.04-.0202.014-.0068.027-.0068.041-.0135.013-.0068.027-.0068.04-.0135.047-.0135.094-.027.142-.0338.013 0 .02-.0067.033-.0067.02-.0068.034-.0068.054-.0135.027 0 .047-.0068.074-.0135.02 0 .034-.0068.054-.0068.013 0 .027 0 .04-.0067.021 0 .048-.0068.074-.0068.027 0 .061 0 .088-.0067.135-.0068.283 0 .431.0067.034 0 .067.0068.101.0068.054.0067.114.0067.175.0135.081.0067.168.0202.256.0337h.027c.04.0068.081.0135.121.0203.121.0202.242.0405.357.0607.047.0068.094.0203.141.027l.128.027c.121.027.243.054.357.081.04.0135.088.0203.128.0338.013 0 .02.0067.034.0067.02.0068.04.0068.06.0135.034.0068.061.0135.088.0203.047.0135.094.027.141.0337.02.0068.034.0068.054.0135.027.0068.061.0135.088.0203.074.0202.148.0405.215.0607.034.0068.061.0203.088.027.027.0068.047.0135.067.0203h.013c.021.0067.041.0135.054.0135.02.0067.034.0135.047.0135.021.0067.041.0135.054.0202.014.0068.02.0068.034.0135.013 0 .02.0068.034.0135.027.0405.06.0473.06.0473z" fill="#1c468a"/><path d="m130.209 99.9948s-.007.0132-.007.0342c0 .006-.006.02-.006.027-.007.02-.014.054-.027.087 0 .007-.007.021-.007.027-.007.027-.02.061-.027.102-.007.02-.013.047-.02.067-.061.196-.135.459-.236.783-.02.081-.047.169-.074.263-.013.048-.027.088-.04.135-.007.014-.007.034-.014.048-.006.033-.02.06-.027.094-.013.034-.02.074-.033.115-.027.088-.054.175-.074.27-.061.216-.122.439-.189.675h-3.898c.006-.243.02-.479.033-.695 0-.054.007-.102.007-.149.02-.243.034-.472.054-.675.007-.054.007-.108.013-.155.014-.101.02-.203.034-.29 0-.021.007-.034.007-.048 0-.02.006-.033.006-.047.014-.094.021-.189.034-.27.007-.027.007-.054.014-.081.006-.027.006-.047.013-.074.007-.02.007-.047.013-.068.007-.02.007-.04.014-.06 0-.014 0-.021.007-.027.006-.027.006-.054.013-.081 0-.014.007-.0342.007-.0477s.007-.027.007-.0405c.006-.054.027-.1013.047-.1418.006-.0135.013-.0202.02-.0337s.013-.0203.02-.027c.014-.0203.027-.0405.047-.054.007-.0068.014-.0135.027-.027.007-.0068.02-.0203.027-.027.007-.0068.014-.0135.02-.0203.014-.0135.027-.0202.041-.027.006-.0067.02-.0135.027-.0202.02-.0135.04-.0203.06-.0338.014-.0067.02-.0135.034-.0135.013-.0067.027-.0135.04-.0202.014-.0068.027-.0068.041-.0135.013-.0068.027-.0068.04-.0135.047-.0135.094-.027.142-.0338.013 0 .02-.0067.033-.0067.02-.0068.034-.0068.054-.0135.027 0 .047-.0068.074-.0135.02 0 .034-.0068.054-.0068.013 0 .027 0 .04-.0067.021 0 .048-.0068.074-.0068.027 0 .061 0 .088-.0067.135-.0068.283 0 .431.0067.034 0 .067.0068.101.0068.054.0067.114.0067.175.0135.081.0067.168.0202.256.0337h.027c.04.0068.081.0135.121.0203.121.0202.242.0405.357.0607.047.0068.094.0203.141.027l.128.027c.121.027.243.054.357.081.04.0135.088.0203.128.0338.013 0 .02.0067.034.0067.02.0068.04.0068.06.0135.034.0068.061.0135.088.0203.047.0135.094.027.141.0337.02.0068.034.0068.054.0135.027.0068.061.0135.088.0203.074.0202.148.0405.215.0607.034.0068.061.0203.088.027.027.0068.047.0135.067.0203h.013c.021.0067.041.0135.054.0135.02.0067.034.0135.047.0135.021.0067.041.0135.054.0202.014.0068.02.0068.034.0135.013 0 .02.0068.034.0135.027.0405.06.0473.06.0473z" fill="#163560"/><path d="m132.128 102.715h-3.851c-.095-.54-.189-1.046-.27-1.478-.134-.743-.249-1.3031-.296-1.5528-.02-.0945-.027-.1485-.027-.1485s.034-.0405.101-.1148c.397-.4522 1.906-2.052 2.633-1.3162.121.1215.242.2497.37.3847.431.4725.882 1.0665 1.152 1.9106.195.627.282 1.383.188 2.315z" fill="#1c468a"/><path d="m127.395 90.6528.653.9787 1.313-.0675.606-1.5728s-.189-.0337-.276-1.9912l-1.636.4995s.087.513-.027 1.0665c-.088.3915-.263.8033-.633 1.0868z" fill="#ffb27d"/><path d="m127.213 89.9574c.087 0 1.629-.5197 3.831.3848 0 0-1.043 6.0007-.599 7.1415.451 1.1475.619 2.16.619 2.16l-4.875.0607s.068-3.9284-.154-5.3189c-.229-1.3905 1.178-4.4281 1.178-4.4281z" fill="#ffb27d"/><path d="m132.021 100.278c-.081.176-.263.311-.492.419-.296.141-.653.236-.936.303-.222.054-.566.108-.956.156-.209.027-.431.04-.66.054-.034 0-.067.006-.094.006-1.468.075-3.111.041-3.326-.661-.021-.068-.021-.203-.007-.378.027-.3646.114-.9046.195-1.4041.081-.486.155-.9382.175-1.1677.115-1.242-.121-3.024-.161-4.1783-.027-.9585.828-3.3142.828-3.3142s.161-.0945.801-.1823c0 0 .094 1.1543.68 1.2488 1.024.1687 1.845-.7695 2.087-1.1475 0 0 1.172.297 1.522.6885.249.2835.216.9585.142 1.3837-.021.135-.054.243-.075.3105-.074.1958-.35 1.6065-.471 2.1735 0 .0135-.007.027-.007.0405-.006.0405-.013.0743-.02.1013s-.013.054-.02.0675c0 .0067-.007.0202-.007.027-.182.5805-.289 1.1677-.229 1.8967.007.0878.027.189.054.3038.155.837.835 2.4907.977 3.2533z" fill="#1d8cdd"/><path d="m128.021 89.566c.68-.054 1.67-1.566 1.67-1.566l-1.636.4995c-.007 0 .08.513-.034 1.0665z" fill="#ed975d"/><path d="m127.381 89.9238s-1.569.1688-2.101.9113c-.525.7425-.861 1.8495-.861 1.8495s.377 1.1272 1.474.9855c1.098-.1418 1.488-3.7463 1.488-3.7463z" fill="#1d8cdd"/><path d="m127.779 88.945s1.999-.0608 1.945-1.3095c-.053-1.2488.162-2.0993-1.117-2.1128-1.28-.0135-1.509.4725-1.589.8978-.088.4252.235 2.511.761 2.5245z" fill="#ffb27d"/><path d="m127.927 85.3674s.06.4117.848.9585c.788.5467.922 1.8022.922 1.8022s.6-2.241-.114-2.7472c-.714-.5063-1.656-.0135-1.656-.0135z" fill="#0c476f"/><path d="m128.573 84.6586s-1.024-.0945-1.751 1.053c-.309.4928-.067 1.269.256 1.674 0 0 .108-1.0597.667-1.4107s.828-1.3163.828-1.3163z" fill="#0c476f"/><path d="m128.236 88.216s-.02.1553-.39.1755c0 0-.317.0135-.323-.1485-.007 0 .282-.1552.713-.027z" fill="#fff"/><path d="m121.739 96.532s-.525-.6143-.034-1.0058c0 0 .364-.2227.653-.2025 0 0-.417.702-.283.7695.135.0675.411-.8167.411-.8167s.822-.081 1.084.0472c0 0-.7.5738-.552.6143.148.0337.909-.5333.909-.5333s.768.1283.727.6008c-.04.4725-.303.6142-.417.6007-.115-.0135-.795-.27-.808-.1755-.014.0945.39.405.68.4185 0 0-.539.594-.896.4253-.357-.1755-.39-.4455-.612-.5468-.223-.1012-.418-.1012-.324 0 .095.1013.499.2025.627.432s.242.378-.128.324c-.371-.054-.977-.3307-1.004-.6412-.033-.3105-.033-.3105-.033-.3105z" fill="#10538c"/><path d="m124.277 96.0123s-2.081-.081-2.538.513c0 0-.101.3037-.411.5805l-.047.135s.363-.378.491-.405c-.006.0067-.208-.7358 2.505-.8235z" fill="#10538c"/><path d="m121.321 97.1125s-.444.3307-.478.9247l.081.0068s.141-.6143.397-.8505c.263-.243 0-.081 0-.081z" fill="#10538c"/><path d="m119.894 95.7558s.841-.4725.444-1.107c0 0-.316-.3915-.646-.4928 0 0 .182.9518 0 .9788-.182.0202-.121-1.0733-.121-1.0733s-.883-.4252-1.233-.3915c0 0 .546.9315.371.9113-.182-.0203-.795-.9653-.795-.9653s-.909-.1687-1.05.3713c-.148.54.087.81.222.8437.135.0338.996.0203.976.135-.02.1148-.606.2903-.929.189 0 0 .357.8843.828.8438.472-.0473.613-.3375.909-.3578.29-.0202.505.054.357.135s-.64.027-.875.2228c-.236.2025-.424.324.013.4117.438.0878 1.219.0338 1.374-.3037.155-.351.155-.351.155-.351z" fill="#10538c"/><path d="m117.275 94.1357s2.349.7628 2.619 1.6133c0 0-.014.378.222.8167v.1688s-.249-.5738-.377-.648c0 .0067.525-.7358-2.464-1.9508z" fill="#10538c"/><path d="m120.116 96.5726s.364.5535.155 1.2217l-.094-.027s.087-.7425-.101-1.1137c-.182-.3645.04-.081.04-.081z" fill="#10538c"/><path d="m121.227 95.101s-1.104-.621-.593-1.4647c0 0 .411-.5198.856-.648 0 0-.236 1.2555 0 1.2825.235.027.161-1.4175.161-1.4175s1.165-.5603 1.623-.5198c0 0-.721 1.2285-.485 1.1948.236-.027 1.044-1.269 1.044-1.269s1.191-.2228 1.387.486c.188.7087-.121 1.0665-.296 1.107-.176.0472-1.313.027-1.28.1755.027.1485.795.3847 1.226.2497 0 0-.472 1.1678-1.091 1.107-.62-.0607-.808-.4455-1.192-.4725s-.667.0743-.471.1755c.188.1013.841.0338 1.151.297.31.2633.559.4253-.013.5468-.573.1215-1.61.0472-1.812-.3983-.215-.432-.215-.432-.215-.432z" fill="#10538c"/><path d="m124.681 92.9749s-3.097 1.0057-3.447 2.1262c0 0 .013.4995-.297 1.08v.2227s.324-.7559.499-.8572c0 0-.694-.972 3.245-2.5717z" fill="#10538c"/><path d="m120.931 96.181s-.478.729-.202 1.6133l.121-.0338s-.121-.972.128-1.4647c.256-.486-.047-.1148-.047-.1148z" fill="#10538c"/><path d="m123.355 97.5444c0 1.2015-.97 2.1735-2.168 2.1735-.25 0-.492-.0405-.714-.1215-.849-.297-1.455-1.1002-1.455-2.052z" fill="#10538c"/><path d="m121.193 99.7113c-.087.0135.357 0 .263 0-1.199 0-2.168-.972-2.168-2.1735h.538c0 1.1138.297 2.0453 1.367 2.1735z" fill="#10538c"/><path d="m123.388 99.8259h-4.39c0-.0742.027-.1417.081-.189.047-.0472.114-.081.189-.081h3.858c.141 0 .262.1215.262.27z" fill="#10538c"/><path d="m123.402 97.5444h-4.451v.0675h4.451z" fill="#10538c"/><path d="m123.496 98.3544c-.047-.1147-.518-.2295-.707-.3105 0 0-.121.0878.04.2295.041.0405.122.0945.196.1485-.02-.0067-.047-.0135-.068-.0202-.168-.0473-1.252.324-1.38.567s.62.8437 1.185.6547c.29-.0945 1.226-.27 1.226-.27l-.155-.7627s-.29-.1215-.337-.2363z" fill="#ffb27d"/><path d="m131.852 91.2063s.222 1.5525-1.387 3.8475-1.515 2.4435-2.444 3.051c-.923.6075-4.033 1.2488-4.033 1.2488l-.155-.7628s3.016-1.944 3.299-2.3288c.283-.3847 2.222-4.6979 2.222-4.6979z" fill="#ffb27d"/><path d="m130.303 90.6326s-1.286 1.0125-1.629 1.5052c-.343.4928-.653 1.5998-.653 1.5998s1.347.8437 3.67.2362c0 0 .619-2.8755-.014-3.2535-.633-.3712-1.219-.0877-1.219-.0877z" fill="#1d8cdd"/><path d="m126.412 76.842s1.441 6.3788 8.08 8.6333c0 0-.061 9.828-.815 12.4132-.754 2.5855-.936 4.3405-.936 4.3405h1.751v-25.3802h-8.08z" fill="#fff"/><path d="m135.885 102.222h-.424v-19.6356-1.0868-5.6295h-20.738v5.6295 1.0868 19.6356h-.425c-1.057 0-1.919.857-1.919 1.924v.067h25.419v-.067c0-1.06-.855-1.924-1.913-1.924zm-20.2-25.3799h18.807v4.6575h-18.807zm0 5.7443h18.807v19.6356h-18.807z" fill="#e5a13e"/><path d="m146.093 110.363h-74.2955v10.192h74.2955z" fill="#ffcc83"/><path d="m89.4456 120.616s-1.3736-4.961-7.097-6.622c-5.7233-1.66-5.353-.83-10.5174-3.793-5.1645-2.957-13.2849-1.107-14.948 1.296-1.6632 2.403-5.5348 3.699-10.8878 3.604-5.353-.094-5.6224 5.13-5.6224 5.13z" fill="#0d4871"/><path d="m185.106 120.71h-168.2121c-.1145 0-.2087-.094-.2087-.209v-.108c0-.115.0942-.209.2087-.209h168.2051c.115 0 .209.094.209.209v.108c0 .115-.094.209-.202.209z" fill="#2995f5"/><path d="m103.485 76.3628h-19.7761v26.3522h19.7761z" fill="#fff" opacity=".5"/><path d="m103 76.8489h-18.8064v25.3801h18.8064z" fill="#cce9ff"/><path d="m91.8629 99.1979s-1.0841 1.4851-1.0841 3.0311h7.3595s-.3972-2.4034-2.0738-3.0311c-1.6766-.621-4.2016 0-4.2016 0z" fill="#0c476f"/><path d="m100.872 91.2127s-1.1581 2.9497-1.286 3.0577c-.3502.2835-2.4846-2.9902-2.8146-3.564-.3299-.5737-2.3566-.081-2.5317-1.1475-.0539-.324-.1616-.6817-.1616-.9112 0-.027 0-.054 0-.081 0-.2093.0135-.432.0471-.6683l-.101.0068-1.7035.135s.1683.4117.1145.9112c-.0202.162-.027.4658-.0472.7628-.0202.3307-.2491.6142-.5656.7087-.7272.216-1.6362.54-1.791.945-.3098.7898-.9966 4.3673-1.1312 5.5823-.1347 1.215-1.3602 4.7658-1.3602 4.7658h.6128s2.3028-3.8816 2.498-4.4823c.0606-.189.2828-.9248.5522-1.8698.2558 1.0193.6194 2.0385.7002 2.457.1414.7223-1.1918 3.0641-1.0571 3.7121s7.1643.999 7.07 0-1.0841-2.6928-1.2861-3.4826c-.1481-.594.1953-2.5852.303-3.7665 1.0774 1.2285 2.5385 2.376 2.9829 2.1398 1.1511-.6008 1.5151-5.0625 1.5151-5.0625z" fill="#ffb27d"/><path d="m92.8661 86.9669s-.9157.729-.1414 1.7888c0 0-.8955-.0338-1.1245-.27 0 0 .0404.1079.0808.1552 0 0-.8282-.0675-1.1379-.3713-.3097-.297.4107-4.509 2.6529-3.7665 0 0 1.9594.0878 1.515 2.3221-.4511 2.2342.2828 2.3219.2828 2.3219s-.2154.0743-.3164.0675c0 0-.1347-.0742-.1549-.1552 0 0 .0135.1282.0471.1755 0 0-.8012-.0203-1.1581-.3645-.3771-.351-.7137-1.4513-.5454-1.9035z" fill="#0c476f"/><path d="m92.0582 87.8917s-.3973-.8303-.4377-1.5053c-.0269-.4792.4175-2.2005 2.148-1.7415 0 0 .505.108.9426.4928.3502.3037.835.9247.0404 2.376l-.2222.4995z" fill="#0c476f"/><path d="m94.233 89.559c-1.2322-.1823-1.9257-1.4783-1.9257-1.4783.505-.054 1.1985.2025 1.7641.4793v.081c0 .2295.0808.594.1616.918z" fill="#ed975d"/><path d="m94.2464 89.0664s-2.2085-.2295-2.0469-1.6065-.0135-2.3355 1.4005-2.2478c1.414.0878 1.6295.6413 1.6834 1.1205.0673.4725-.4579 2.754-1.037 2.7338z" fill="#ffb27d"/><path d="m94.6168 85.2997s-.7945 1.5458-1.7507 1.6673c-.9561.1283-1.3264-.1687-1.3264-.1687s.781-.4793 1.0436-1.4513c0 .0068 1.6699-.8708 2.0335-.0473z" fill="#0c476f"/><path d="m94.4485 85.4145s.4107.4117.4781.7762c.0673.3645.0336 1.0935.2424 1.0935 0 0 .5858-1.0462.1481-1.728-.4646-.7222-.8686-.1417-.8686-.1417z" fill="#0c476f"/><path d="m94.5292 85.4751s-.6329 1.6403-1.8651 2.0385c0 0 1.2928-.8977 1.5217-2.0047.2357-1.1003.3434-.0338.3434-.0338z" fill="#0c476f"/><path d="m93.7953 88.2563s.0539.1958.1885.2295c.1347.0338.4916.0675.5185.0405.0337-.027.1347-.2025.1347-.2025s-.5589-.1282-.8417-.0675z" fill="#fff"/><path d="m100.845 91.3748s-.04-1.053.074-1.4107c.115-.3578.357-.945.411-.918s.162.81.114.9855c-.047.1755.048.594.115.513s.182-.6413.269-.6075c.095.0337.007.3712.047.459.041.0877.041.3105-.134.6007-.175.2903-.35.621-.35.621z" fill="#ffb27d"/><path d="m87.668 101.702s-.8888-.216-1.1784-.114c-.2895.101-.8214.621-.6868.627.1347.007.7474-.155.835-.135.0875.021.3366.054.3366.054s-.3636.021-.3434.088c.0202.068.936.074 1.0437 0s.4781-.526.4781-.526h-.4848z" fill="#ffb27d"/><path d="m90.8663 90.7403s1.1178.9585 2.5318.8843c1.4207-.0743 2.5384-1.242 2.5384-1.242s.6464.0067.9831.3645c.3367.3645 1.6295 1.9845 1.6295 1.9845s.1144 1.2217-1.34 2.0722l-.1481-.2632s-.2424 3.0375-.0943 3.321c.1549.2835 1.3602 3.2734 1.1582 3.7324-.1953.459-6.794 1.587-7.2922-.074-.4983-1.6604.7474-3.0982.6935-3.6922s-.3367-2.4772-.3367-2.4772-1.9055-.2903-1.9728-1.4378c.0134.0068.3501-3.1927 1.6496-3.1725z" fill="#fff"/><path d="m104.4 102.222h-.424v-19.6356-1.0868-5.6295h-20.7385v5.6295 1.0868 19.6356h-.4242c-1.0571 0-1.919.857-1.919 1.924v.067h25.4247v-.067c0-1.06-.862-1.924-1.919-1.924zm-20.1929-25.3799h18.8059v4.6575h-18.8059zm0 5.7443h18.8059v19.6356h-18.8059z" fill="#e5a13e"/><path d="m102.73 77.2605h-18.1863v.918h18.1863z" fill="#fff"/><path d="m102.73 78.6982h-18.1863v.918h18.1863z" fill="#fff"/><path d="m102.73 80.136h-18.1863v.918h18.1863z" fill="#fff"/><path d="m102.73 81.4861h-18.1863v.918h18.1863z" fill="#fff"/><path d="m102.73 83.0046h-18.1863v.918h18.1863z" fill="#fff"/><path d="m85.5672 76.8286h-.1751v7.8368h.1751z" fill="#fff"/><path d="m101.99 76.8286h-.175v7.8368h.175z" fill="#fff"/><path d="m97.9565 101.486h-2.6799v-.945h2.6866c.2087 0 .3771.169.3771.378v.183c.0067.216-.1684.384-.3838.384z" fill="#fcecdb"/><path d="m100.63 100.933v.142c0 .074-.021.148-.054.209-.074.121-.202.209-.357.209h-5.0164c-.0337 0-.0606-.027-.0606-.061v-.02c0-.034.0269-.061.0606-.061h3.0569c.0135-.02.0337-.04.0404-.067.027-.054.0472-.115.0472-.182v-.183c0-.033-.0068-.067-.0135-.094-.0135-.054-.0404-.101-.0741-.142h-3.0636c-.0337 0-.0606-.027-.0606-.061v-.02c0-.034.0269-.061.0606-.061h5.0431c.175 0 .33.122.377.284.007.034.014.067.014.108z" fill="#699dee"/><path d="m100.616 100.825h-2.2824c-.0135-.054-.0404-.101-.0741-.142h-3.0636c-.0337 0-.0606-.027-.0606-.061v-.02c0-.034.0269-.061.0606-.061h5.0431c.175 0 .33.122.377.284z" fill="#548ee2"/><path d="m95.2833 101.014.3704.02-.3704.007z" fill="#f4d2b8"/><path d="m95.2833 101.162.8821.021-.8821.006z" fill="#f4d2b8"/><path d="m95.8557 102.222h2.8482v-.736h-2.8751c-.1953 0-.3569.162-.3569.358 0 .209.1684.378.3838.378z" fill="#0c476f"/><path d="m98.5423 102.222h3.2457v-.736h-3.2524c-.202 0-.3636.162-.3636.365 0 .209.1616.371.3703.371z" fill="#fcecdb"/><path d="m97.9497 102.222h3.9453c.034 0 .054-.027.054-.054 0-.034-.027-.054-.054-.054h-3.9453c-.0336 0-.0538.027-.0538.054 0 .034.0269.054.0538.054z" fill="#0c476f"/><path d="m97.9497 101.594h3.9453c.034 0 .054-.027.054-.054 0-.033-.027-.054-.054-.054h-3.9453c-.0336 0-.0538.027-.0538.054 0 .034.0269.054.0538.054z" fill="#0c476f"/><path d="m101.781 101.858-.438.006.438.014z" fill="#f4d2b8"/><path d="m101.781 101.689-1.044.006 1.044.007z" fill="#f4d2b8"/><path d="m100.751 101.695s.047.034.06.081c0 .007.007.021.007.027v.223l.135-.081.135.081v-.209c0-.041-.014-.081-.034-.108-.014-.014-.02-.02-.034-.02h-.269z" fill="#699dee"/><path d="m100.751 101.695s.047.034.06.081h.263s-.013-.074-.067-.087h-.256z" fill="#568cdb"/><path d="m103.074 30.5505h-19.7759v26.352h19.7759z" fill="#cce9ff"/><path d="m92.8055 31.0229s-.0471 7.7895 7.8305 14.3708c0 0-1.6425 8.5792-1.4069 11.016h3.7839v-25.38h-10.2075z" fill="#fff"/><path d="m85.749 45.7986s-1.6497.2362-2.0739.6075c-.7205.6277-.1885 10.2127-.1885 10.2127s2.4778.2025 2.4778 0c0-.2092-.2154-10.8202-.2154-10.8202z" fill="#d39e7a"/><path d="m92.213 56.6324-3.5417.2633-2.4712.1822-.5184.0405-.0337-.2227-.0269-.1958-.0068-.0405-.1212-.864-.0471-.3442-.1549-1.053-.7743-5.3865-.2155-1.5053s-.1616-1.4175 1.1514-1.647c.0943-.0202.1953-.0337.303-.054h.0068c.4444-.081.9561-.1687 1.4544-.2362.4107-.054.8215-.0878 1.1851-.081.1548 0 .303.0135.4376.0337.1751.027.3299.0675.4579.1283.0134.0067.0269.0135.0404.0202.0539.027.0943.054.1414.0878.0202.0135.0336.027.0471.0472.0471.0473.0943.1418.1549.2768.0606.1485.1346.351.2087.594.1077.3375.2222.7492.3501 1.2217.3502 1.3163.7474 3.0443 1.0976 4.6238.0134.0472.0202.0945.0336.1417.0472.2025.0876.405.1347.6008 0 .0067.0067.0202.0067.027.0068.0337.0135.0742.0203.108.0202.0945.0404.1957.0606.2902.0404.189.0807.3713.1211.5468.2559 1.1947.4445 2.106.4916 2.3422.0067.0338.0067.054.0067.054z" fill="#efcbab"/><path d="m89.9708 46.6357s.5589.8303.8821 2.5785c.2828 1.5323.5252 2.0925.9292 2.4098.404.3105 2.6529 1.242 2.6529 1.242l-.1683.3982s-3.2994-.4522-3.6697-1.0057-1.7843-3.8205-1.6766-4.5698c.1145-.756 1.0504-1.053 1.0504-1.053z" fill="#f4a269"/><path d="m97.5324 56.8957h-2.727c-.0674-.27-.1684-.4455-.3636-.4523-.1751-.0067-1.111.0878-2.249.1283-1.8045.0607-4.1006-.027-4.6123-.9383-.1212-.216-.2155-.4387-.2761-.648-.0134-.0337-.0202-.0607-.0269-.0945-.1077-.3915-.1279-.7695-.101-1.0935.0135-.189.0404-.3645.0741-.513.0808-.378.1885-.6142.1885-.6142l.8888.6547.101.0743s.7609-.054 1.818-.1013c.2357-.0067.4781-.0202.7339-.027.128-.0067.2559-.0067.3906-.0067h.1279c.3165-.0068.6464-.0068.9696-.0068h.0943.2289c1.2524.0135 2.451.0945 3.0502.324.0876.0338.1616.0675.2222.108 0 0 .0068 0 .0068.0068.4309.27.9628 1.6065 1.4611 3.1995z" fill="#10538c"/><path d="m95.0342 56.8959h-6.363l-2.4711.1822c-.1212-.054-.2289-.1147-.3232-.1822-.0875-.0608-.1616-.1283-.2289-.1958-.0135-.0135-.027-.027-.0337-.0405-.0404-.0472-.0741-.1012-.101-.1552-.1212-.243-.1683-.4725-.1549-.6953.0068-.1282.0337-.243.0808-.3645.101-.2767.2828-.5265.4916-.7492.5319-.5535 1.2456-.8978 1.2456-.8978h.0068c.074.0068.8147.0405 1.791.1215.0943.0068.1886.0135.2896.027.7676.0675 1.6429.162 2.4442.2903 1.0369.162 1.9526.3712 2.3499.648.3097.2092.6464.9855.9763 2.0115z" fill="#1d8cdd"/><path d="m89.8429 43.6117c0-.0067 0-.0067 0-.0135 0-.108-.0067-.216-.0135-.324-.0202-.324-.0673-.6412-.1212-.918-.0336-.162-.074-.3105-.1144-.4455-.0068-.0202-.0135-.0405-.0202-.0607-.101-.3105-.229-.54-.3704-.6278-.2558-.1687-.5656-.2025-.7878-.2092.0606-.054.1751-.0675.1751-.0675-.1347-.027-.4511.0877-.4511.0877-1.8517-.864-2.3365 1.9238-2.3432 2.5785-.0068.6548-.0472 1.404-1.037 1.9305-.377.2025-.6329.4388-.7878.702-.6531 1.0733.2828 2.4435.2828 2.4435.0068 0 .1078.135.2492.3308.377.4995 1.0436 1.3837 1.0436 1.3837 0-.1215.101-.351.2761-.648.1279-.2227.2963-.4725.4915-.7425.0943-.1282.1886-.2632.2963-.3915.1347-.1755.2828-.3577.4309-.5332.0606-.0675.1145-.135.1751-.2025.2626-.3038.5387-.594.8147-.8505.0606-.0608.128-.1148.1886-.1688.074-.0675.1548-.135.2289-.1957.1481-.1148.2895-.2228.4242-.3038.0067-.0067.0135-.0067.0202-.0135.0202-.0135.0337-.0202.0539-.0337.0606-.0743.1077-.1553.1548-.243.0202-.0338.0337-.0675.0539-.1013.0471-.1012.0875-.2025.1279-.3037.1078-.3105.1684-.5873.1818-.6345-.0404.2632-.0875.4792-.1346.6547-.0337.1148-.0674.216-.101.297-.027.0608-.0472.1148-.0741.1553-.0135.0202-.0202.0405-.0337.0607.0135-.0135.027-.027.0404-.0337.0539-.0473.101-.1013.1482-.162.0538-.0675.101-.1418.1481-.2295.2963-.567.404-1.377.3838-2.1668z" fill="#0c476f"/><path d="m88.9136 45.9136c-.0337-.0135-.0673-.027-.1077-.0405 0-.0878.0067-.1755.0134-.2633.027-.4185.0876-.8572.0876-.8572l-1.3871-.3713-.0808-.0202c-.0404.6142-.1616 1.0327-.2693 1.3162-.1414.0068-.2357.0135-.2357.0135-.0202.081 0 .216.0741.3578-.0135.027-.0202.0472-.0202.0675-.0876.3915.8888.9382 1.3466.9585.2626.0135.404-.0945.4781-.2295.5521-.1485.5117-.7628.101-.9315z" fill="#ffb27d"/><path d="m88.907 44.7457s-.0606.4387-.0876.8572c-.7878-.0742-1.1514-.8235-1.2995-1.2352z" fill="#f4a269"/><path d="m87.3852 44.2058s-.3704-.6817-.431-1.2487c-.0471-.405.2559-1.8698 1.7238-1.5593 0 0 .4309.0743.8147.3713.3097.2362.7407.7425.1347 1.998l-.1616.4252z" fill="#0c476f"/><path d="m89.1493 45.1575s-1.8651-.0945-1.7911-1.2555c.0741-1.161-.1144-1.9575 1.0774-1.9508 1.1918.0135 1.3938.4725 1.4611.864.0741.3983-.2626 2.3355-.7474 2.3423z" fill="#ffb27d"/><path d="m89.2907 41.9783s-.5992 1.3298-1.3938 1.4783c-.7945.1485-1.1244-.081-1.1244-.081s.6329-.4388.8147-1.2623c-.0067 0 1.3601-.81 1.7035-.135z" fill="#0c476f"/><path d="m89.1561 42.0863s.3636.3308.431.6345c.074.3038.074.918.2558.9045 0 0 .4444-.9045.0472-1.458-.4175-.5872-.734-.081-.734-.081z" fill="#0c476f"/><path d="m91.0144 53.4937c-.1481.1823-.6194.2363-1.1244.3173-.3973.0675-.8148.1485-1.111.324-.6734.3982-2.8684 1.7347-3.5081 1.674-.2491-.0203-.202-.4995-.0539-1.134.2357-.999.734-2.3895.734-2.997 0-.3308.1077-1.107.2558-2.0048.0135-.0742.027-.1417.0337-.216.2895-1.7347.6868-3.78.6868-3.78s.4444.9788 1.3197.9788c.8686 0 .6666-.7425.6666-.7425s.7946.0945.9831.297.6666 1.08.7609 1.3162c0 0 .0202.3038-.734.4455 0 0 .1818.8235.202 1.377.0135.405-.276 1.674-.3636 2.4705-.0269.2768-.0336.4995.0135.6008.0606.1282.2491.2565.4579.378.4309.243.9561.4792.781.6952z" fill="#2b94f4"/><path d="m90.2401 52.7984c.4848.8235-1.3063 1.0733-1.6025 1.242-.6734.3983-2.727 1.8293-3.3734 1.7685-.2492-.0202-.202-.4995-.0539-1.134.2357-.999.7339-2.3895.7339-2.997 0-.3307.1078-1.107.2559-2.0047l.7743-.7425s.8282 2.1532 1.6228 2.5042c.4174.1823.8484.3038 1.1648.378-.0269.2768-.0336.4995.0135.6008.0606.1282.2491.2565.4646.3847z" fill="#1d8cdd"/><path d="m92.8459 53.3926h-2.4375v.2902h2.4375z" fill="#0c476f"/><path d="m92.3274 53.6424c.0269-.0945 2.2422-3.5843 2.2422-3.5843h4.9288l-2.4711 3.4898z" fill="#0c476f"/><path d="m92.5361 53.6829c.027-.0945 2.249-3.6248 2.249-3.6248h4.72l-2.3566 3.6248z" fill="#2b478b"/><path d="m96.4347 51.9953c-.0471.1417-.202.2565-.3434.2565s-.2154-.1148-.1683-.2565c.0471-.1418.202-.2565.3434-.2565.1481 0 .2222.1147.1683.2565z" fill="#afcdfb"/><path d="m91.7484 52.488c-.101-.0405-.8888.1013-1.111.1418-.7137-.1418-3.0569-.6075-3.1714-.756-.1346-.1755-.4309-5.4608-.7676-5.5485 0 0-.6598-.405-1.2995.3645-.6397.7627.4579 6.2302 1.4073 6.5137 1.0571.3105 4.1006-.0472 4.1006-.0472.2491.0877.6868.135.9224.2092.3098.1013.5791.0203.6464-.1012.0539-.1215-.6127-.7223-.7272-.7763z" fill="#ffb27d"/><path d="m86.934 45.6841s-1.3601.1215-1.7574.5737c-.3972.4455-.5117 1.6605-.5117 1.6605s1.1985.972 2.6395.594z" fill="#2b94f4"/><path d="m92.287 31.0229s-1.4409 6.3788-8.08 8.6333c0 0 .0606 9.828.8148 12.4133.7474 2.5852.9359 4.3402.9359 4.3402h-1.7507v-25.38h8.08z" fill="#fff"/><path d="m80.901 58.3269v.0675h25.418v-.0675c0-1.0598-.855-1.9238-1.919-1.9238h-.424v-19.629-1.0867-5.6295h-20.7385v5.6295 1.0867 19.6358h-.4242c-1.0572 0-1.9123.8572-1.9123 1.917zm22.112-22.6463h-18.8059v-4.6575h18.8059zm0 20.7293h-18.8059v-19.6358h18.8059z" fill="#e5a13e"/><path d="m99.8149 54.4927s.6671.27 1.1451-.4118c0 0-.768-.1282-1.1451.4118z" fill="#6bb7bf"/><path d="m99.7679 54.2092s-.0471-.2362-.3299-.2497c.0067.0067.1077.2497.3299.2497z" fill="#6bb7bf"/><path d="m99.9093 52.812s.3237.0338.4447-.324c0 0-.35.0405-.4447.324z" fill="#6bb7bf"/><path d="m100.677 48.1071c-.653-.1417-.667-.675-.667-.675.775.243.667.675.667.675z" fill="#6bb7bf"/><path d="m100.724 47.9858s.411.1687.7-.2498c0 0-.471-.0809-.7.2498z" fill="#6bb7bf"/><path d="m99.8285 56.0654-.0875.0945c-.0135.0135-.0404.0067-.0404-.0135.0067-2.7608.3564-5.2043.6464-6.6555.323-1.5795.646-2.511.646-2.5178 0 .0068-.296.9585-.612 2.5313-.297 1.4445-.6333 3.3412-.5458 6.5205.0068.0135 0 .027-.0067.0405z" fill="#6bb7bf"/><path d="m101 46.602c-.101.081-.505.4387-.114.7155 0 0 .296.0945.397-.135.074-.1755.094-.3713.101-.4523 0-.0202-.014-.0405-.034-.0405s-.054-.0067-.081-.0202c-.033-.0135-.053-.0675-.107-.081-.034-.0068-.061-.0135-.101-.0135-.027 0-.047.0135-.061.027z" fill="#1d8cdd"/><path d="m100.778 47.2163s.121.0945.074.2498v.054s.034-.1418.175-.1823c0 0-.135.0135-.249-.1215z" fill="#6bb7bf"/><path d="m100.677 48.1071c-.653-.1417-.667-.675-.667-.675s.519.2835.667.675z" fill="#8ad8db"/><path d="m100.051 47.7426s-.411.1552-.6938-.2633c0 0 .4713-.0742.6938.2633z" fill="#6bb7bf"/><path d="m100.785 55.836.08.1012c.014.0135.034.0068.041-.0135.047-2.754-.249-5.211-.512-6.6622-.289-1.5863-.5925-2.5245-.5992-2.5313 0 .0068.2762.9653.5652 2.5448.263 1.4512.566 3.3547.418 6.534-.007 0 0 .0135.007.027z" fill="#6bb7bf"/><path d="m99.8084 46.3521c.101.0878.4916.4523.101.7223 0 0-.2963.0877-.3906-.1418-.074-.1755-.0875-.3712-.0942-.4522 0-.0203.0134-.0405.0336-.0405s.0539-.0068.0876-.0203c.0336-.0135.0538-.0675.1077-.081.0337-.0067.0606-.0135.101-.0067.0135-.0068.0337.0067.0539.0202z" fill="#1d8cdd"/><path d="m100.017 46.9731s-.1211.0945-.0807.243v.054s-.0269-.1417-.1751-.189c0 .0068.1347.0203.2558-.108z" fill="#6bb7bf"/><path d="m100.226 47.2566s.431.0743.626-.3982c0 .0067-.478.027-.626.3982z" fill="#6bb7bf"/><path d="m101.108 55.3364-.061.1148c-.007.0202-.034.0135-.04-.0067-.593-2.6933-.788-5.1571-.815-6.6353-.034-1.6065.081-2.592.088-2.5988 0 .0068-.081.9991-.048 2.6056.027 1.4782.115 3.3952.889 6.4867 0 .0067-.007.0202-.013.0337z" fill="#6bb7bf"/><path d="m100.192 45.8459c-.081.108-.3973.54.04.729 0 0 .31.027.357-.216.034-.189.014-.3847 0-.4657 0-.0203-.02-.0338-.047-.0338-.02 0-.054.0068-.087 0-.041-.0067-.068-.054-.122-.054-.033 0-.067 0-.101.0135-.013 0-.027.0068-.04.027z" fill="#1d8cdd"/><path d="m100.111 46.4939s.135.0675.128.2227l.014.054s0-.1417.134-.216c-.006 0-.134.0473-.276-.0607z" fill="#6bb7bf"/><path d="m100.583 46.7774s0-.3442.296-.4522c0 0 .067.2835-.296.4522z" fill="#6bb7bf"/><path d="m99.8891 46.224s.0067-.2633-.2357-.3375c0 0-.0606.243.2357.3375z" fill="#ed9f4a"/><path d="m100.684 47.8034c.006.0067.128-.2565-.115-.4658 0 0-.101.2768.115.4658z" fill="#ed9f4a"/><path d="m100.852 47.7833c-.007 0 0-.1283.121-.1485 0 0 .02.108-.121.1485z" fill="#6bb7bf"/><path d="m99.613 47.3377s-.1077-.216-.4377-.1823c-.0067 0 .0472.2363.4377.1823z" fill="#6bb7bf"/><path d="m101.471 56.3896h-2.1543c-.1414 0-.2558-.1283-.2356-.27l1.0029-6.9255c.007-.0675.068-.1148.128-.1148h.323c.068 0 .128.054.142.1215l1.023 6.9255c.021.135-.094.2633-.229.2633z" fill="#1d8cdd"/><path d="m99.7948 56.1803.5322-7.101c-.061.0068-.101.054-.115.108l-1.003 6.9255c-.0202.1418.0875.27.2356.27h.431c-.0539-.0472-.0876-.1215-.0808-.2025z" fill="#ffb278"/><g fill="#2795f6"><path d="m158.671 72.1371h-.451l.007-.0337.134-1.2083c.007-.0405.041-.0675.074-.0675h.014c.027 0 .047.0135.067.0338.02.0202.034.0472.041.081z"/><path d="m158.26 71.8671h-.013l.114-.972c.007-.0405.041-.0675.074-.0675h.014c.006.0068.006.0068.013.0135.02.0203.034.0473.034.081l.007.6953c-.007.135-.108.243-.243.2497z"/><path d="m158.961 77.5237h-.876v38.6103h.876z"/><path d="m158.489 77.5237h-.404v38.6103h.404z"/><path d="m159.91 109.971h-2.781v10.213h2.781z"/><path d="m158.785 109.971h-1.656v10.213h1.656z"/><path d="m160.038 72.7244c0 .4792-.714.8639-1.596.8639-.067 0-.135.0001-.195-.0067-.788-.054-1.401-.4185-1.401-.8572 0-.4388.613-.8033 1.401-.8573.067-.0068.128-.0067.195-.0067.882 0 1.596.3847 1.596.864z"/><path d="m159.21 72.7244c0 .3848-.398.7155-.97.8573-.788-.054-1.401-.4185-1.401-.8573 0-.4387.613-.8032 1.401-.8572.572.1417.97.4725.97.8572z"/><path d="m159.903 78.2864h-2.774l-.983-4.7317h4.592z"/><path d="m160.987 73.1968h-5.083v.4522h5.083z"/><path d="m159.095 73.1968h-3.191v.4522h3.191z"/><path d="m157.587 109.971h1.778l-.263-.79c-.02-.067-.088-.115-.162-.115h-.835c-.087 0-.168.054-.208.135z"/><path d="m156.476 73.7842h3.919l-.768 4.2525h-2.249z"/><path d="m156.954 72.7717s.296-.6548.889-.6345c0 0-.377.3375-.344.6345.034.3037-.545 0-.545 0z"/><path d="m160.657 73.1968h-4.43l.363-.513h3.724z"/><path d="m159.567 73.1968h-3.34l.363-.513h2.633z"/><path d="m156.739 73.9326h.895l.263 3.969h-.263z"/></g><path d="m149.26 12.374-80.8183 2.919.1992 5.5451 80.8191-2.919z" fill="#e5a13e"/><path d="m105.552 23.895h-23.8296v5.1098h23.8296z" fill="#e5a13e"/><path d="m136.996 23.895h-23.829v5.1098h23.829z" fill="#e5a13e"/><path d="m105.552 68.8027h-23.8296v5.1098h23.8296z" fill="#e5a13e"/><path d="m136.996 68.8027h-23.829v5.1098h23.829z" fill="#e5a13e"/></svg>